0
SECTION
2
HEADER
9
$INSUNITS
70
4
9
$ACADVER
1
AC1014
9
$HANDSEED
5
FFFF
0
ENDSEC
0
SECTION
2
TABLES
0
TABLE
2
VPORT
5
8
100
AcDbSymbolTable
0
ENDTAB
0
TABLE
2
LTYPE
5
5
100
AcDbSymbolTable
0
LTYPE
5
14
100
AcDbSymbolTableRecord
100
AcDbLinetypeTableRecord
2
BYBLOCK
70
0
0
LTYPE
5
15
100
AcDbSymbolTableRecord
100
AcDbLinetypeTableRecord
2
BYLAYER
70
0
0
LTYPE
5
16
100
AcDbSymbolTableRecord
100
AcDbLinetypeTableRecord
2
DASHED
70
0
3
Dashed __ __ __ __ __ __ __ __ __ __ __ __ __ _
72
65
73
2
40
0.75
49
0.5
74
0
49
-0.25
74
0
0
ENDTAB
0
TABLE
2
LAYER
5
2
100
AcDbSymbolTable
70
2
0
LAYER
5
50
100
AcDbSymbolTableRecord
100
AcDbLayerTableRecord
2
0
70
0
62
7
6
CONTINUOUS
0
ENDTAB
0
TABLE
2
STYLE
5
3
100
AcDbSymbolTable
70
1
0
STYLE
5
11
100
AcDbSymbolTableRecord
100
AcDbTextStyleTableRecord
2
STANDARD
70
0
0
ENDTAB
0
TABLE
2
VIEW
5
6
100
AcDbSymbolTable
70
0
0
ENDTAB
0
TABLE
2
UCS
5
7
100
AcDbSymbolTable
70
0
0
ENDTAB
0
TABLE
2
APPID
5
9
100
AcDbSymbolTable
70
2
0
APPID
5
12
100
AcDbSymbolTableRecord
100
AcDbRegAppTableRecord
2
ACAD
70
0
0
ENDTAB
0
TABLE
2
DIMSTYLE
5
A
100
AcDbSymbolTable
70
1
0
ENDTAB
0
TABLE
2
BLOCK_RECORD
5
1
100
AcDbSymbolTable
70
1
0
BLOCK_RECORD
5
1F
100
AcDbSymbolTableRecord
100
AcDbBlockTableRecord
2
*MODEL_SPACE
0
BLOCK_RECORD
5
1B
100
AcDbSymbolTableRecord
100
AcDbBlockTableRecord
2
*PAPER_SPACE
0
ENDTAB
0
ENDSEC
0
SECTION
2
BLOCKS
0
BLOCK
5
20
100
AcDbEntity
100
AcDbBlockBegin
2
*MODEL_SPACE
0
ENDBLK
5
21
100
AcDbEntity
100
AcDbBlockEnd
0
BLOCK
5
1C
100
AcDbEntity
100
AcDbBlockBegin
2
*PAPER_SPACE
0
ENDBLK
5
1D
100
AcDbEntity
100
AcDbBlockEnd
0
ENDSEC
0
SECTION
2
ENTITIES
0
CIRCLE
5
100
100
AcDbEntity
8
0
100
AcDbCircle
10
99.999999999999943
20
20.000000000000135
30
0
40
1.7500000000000071
210
0
220
-0
230
1
0
CIRCLE
5
101
100
AcDbEntity
8
0
100
AcDbCircle
10
99.999999999999972
20
-19.999999999999872
30
0
40
1.7500000000000071
210
0
220
-0
230
1
0
CIRCLE
5
102
100
AcDbEntity
8
0
100
AcDbCircle
10
59.999999999999986
20
20.000000000000135
30
0
40
1.749999999999998
210
0
220
-0
230
1
0
CIRCLE
5
103
100
AcDbEntity
8
0
100
AcDbCircle
10
59.999999999999957
20
-19.999999999999872
30
0
40
1.749999999999998
210
0
220
-0
230
1
0
LWPOLYLINE
5
104
100
AcDbEntity
8
0
100
AcDbPolyline
90
4
70
1
43
0.0
10
45.412755921848635
20
70.558553497736909
10
12.587244078151244
20
70.558553497736909
10
12.587244078151247
20
150.55855349773691
10
45.412755921848635
20
150.55855349773691
0
SPLINE
5
105
100
AcDbEntity
8
0
100
AcDbSpline
70
0
71
3
72
16
73
12
74
0
42
0.000000001
43
0.0000000001
44
0.0000000001
40
0
40
0
40
0
40
0
40
0.39064447338692648
40
0.39064447338692648
40
0.78128894677385596
40
0.78128894677385596
40
1.1719334201607827
40
1.1719334201607827
40
1.5625778935477102
40
1.5625778935477102
40
1.9164513071700839
40
1.9164513071700839
40
1.9164513071700839
40
1.9164513071700839
10
107.71236166328258
20
173.33333333333331
30
0
10
108.14641107815694
20
172.10565619482247
30
0
10
108.33651809941853
20
170.80493681634277
30
0
10
108.20744624636177
20
168.20384076647289
30
0
10
107.88950136930822
20
166.9283319910264
30
0
10
106.78258604164822
20
164.5709820676397
30
0
10
106.00419830488961
20
163.51167846982204
30
0
10
104.08518890881589
20
161.75106404818376
30
0
10
102.96291402526816
20
161.06658565784298
30
0
10
100.63417705906674
20
160.20871065478127
30
0
10
99.463849292869838
20
160
30
0
10
98.284271247461916
20
160
30
0
0
SPLINE
5
106
100
AcDbEntity
8
0
100
AcDbSpline
70
0
71
3
72
14
73
10
74
0
42
0.000000001
43
0.0000000001
44
0.0000000001
40
0
40
0
40
0
40
0
40
1.584473767704248
40
1.584473767704248
40
3.188223629552251
40
3.188223629552251
40
4.7300396240797804
40
4.7300396240797804
40
4.9392056949943255
40
4.9392056949943255
40
4.9392056949943255
40
4.9392056949943255
10
70.000000000000014
20
200.00000000000003
30
0
10
75.281579225680844
20
200.00000000000003
30
0
10
80.511235108565856
20
198.9539345331072
30
0
10
90.320952110709754
20
194.86598391582319
30
0
10
94.79353315665702
20
191.84114700688323
30
0
10
102.14026405639078
20
184.36014617171847
30
0
10
105.0010851609226
20
180.03340541894607
30
0
10
107.23125116926801
20
174.63967391812071
30
0
10
107.48046968227686
20
173.98922290242101
30
0
10
107.71236166328258
20
173.33333333333331
30
0
0
LINE
5
107
100
AcDbEntity
8
0
100
AcDbLine
10
70.000000000000014
20
200.00000000000003
30
0
11
-69.999999999999986
21
200.00000000000003
31
0
0
SPLINE
5
108
100
AcDbEntity
8
0
100
AcDbSpline
70
0
71
3
72
14
73
10
74
0
42
0.000000001
43
0.0000000001
44
0.0000000001
40
1.3641879528889982
40
1.3641879528889982
40
1.3641879528889982
40
1.3641879528889982
40
1.5844737677042684
40
1.5844737677042684
40
3.188223629552275
40
3.188223629552275
40
4.7300396240797973
40
4.7300396240797973
40
6.3033142315942392
40
6.3033142315942392
40
6.3033142315942392
40
6.3033142315942392
10
-107.71236166328251
20
173.33333333333346
30
0
10
-107.46817038336525
20
174.02401057307793
30
0
10
-107.20476834149736
20
174.70865013037692
30
0
10
-104.86598391582299
20
180.32095211070995
30
0
10
-101.84114700688305
20
184.79353315665722
30
0
10
-94.360146171718242
20
192.14026405639095
30
0
10
-90.033405418945847
20
195.00108516092271
30
0
10
-80.437669037764294
20
198.96866958722936
30
0
10
-75.244248691714787
20
200.00000000000003
30
0
10
-69.999999999999986
20
200.00000000000003
30
0
0
SPLINE
5
109
100
AcDbEntity
8
0
100
AcDbSpline
70
0
71
3
72
16
73
12
74
0
42
0.000000001
43
0.0000000001
44
0.0000000001
40
0
40
0
40
0
40
0
40
0.39064447338692943
40
0.39064447338692943
40
0.78128894677385974
40
0.78128894677385974
40
1.1719334201607847
40
1.1719334201607847
40
1.5625778935477164
40
1.5625778935477164
40
1.9164513071700873
40
1.9164513071700873
40
1.9164513071700873
40
1.9164513071700873
10
-98.284271247461874
20
160.00000000000006
30
0
10
-99.586419492084985
20
160.00000000000006
30
0
10
-100.87611848976385
20
160.25433850764631
30
0
10
-103.28543141258562
20
161.24306063434528
30
0
10
-104.38201099300933
20
161.96799153097157
30
0
10
-106.23557003906443
20
163.79738461795074
30
0
10
-106.97482846994782
20
164.88435681329588
30
0
10
-107.99508186671694
20
167.28048769667456
30
0
10
-108.26632265404852
20
168.56673806747079
30
0
10
-108.29888930808188
20
171.04825066902575
30
0
10
-108.10555434508518
20
172.22121648687113
30
0
10
-107.71236166328256
20
173.33333333333343
30
0
0
LINE
5
110
100
AcDbEntity
8
0
100
AcDbLine
10
-98.284271247461874
20
160.00000000000006
30
0
11
-59.999999999999972
21
160.00000000000003
31
0
0
LINE
5
111
100
AcDbEntity
8
0
100
AcDbLine
10
-59.999999999999972
20
160.00000000000003
30
0
11
-59.999999999999993
21
70.000000000000085
31
0
0
LINE
5
112
100
AcDbEntity
8
0
100
AcDbLine
10
-59.999999999999993
20
70.000000000000085
30
0
11
-99.999999999999972
21
70.000000000000085
31
0
0
ARC
5
113
100
AcDbEntity
8
0
100
AcDbCircle
10
-99.999999999999972
20
60.000000000000107
30
0
40
9.9999999999999822
210
0
220
-0
230
1
100
AcDbArc
50
90
51
180
0
LINE
5
114
100
AcDbEntity
8
0
100
AcDbLine
10
-109.99999999999994
20
60.000000000000085
30
0
11
-109.99999999999994
21
-50.000000000000178
31
0
0
ARC
5
115
100
AcDbEntity
8
0
100
AcDbCircle
10
-90.000000000000071
20
-50.000000000000199
30
0
40
19.999999999999876
210
0
220
0
230
1
100
AcDbArc
50
180
51
270.00000000000023
0
LINE
5
116
100
AcDbEntity
8
0
100
AcDbLine
10
-89.999999999999986
20
-70.000000000000071
30
0
11
-64.999999999999901
21
-70.000000000000085
31
0
0
ARC
5
117
100
AcDbEntity
8
0
100
AcDbCircle
10
-64.999999999999886
20
-100.00000000000007
30
0
40
30
210
-0
220
0
230
1
100
AcDbArc
50
0
51
90.000000000000014
0
LINE
5
118
100
AcDbEntity
8
0
100
AcDbLine
10
-34.999999999999893
20
-100.00000000000009
30
0
11
-34.999999999999943
21
-174.99999999999994
31
0
0
ARC
5
119
100
AcDbEntity
8
0
100
AcDbCircle
10
-9.9999999999999378
20
-174.99999999999994
30
0
40
25.000000000000004
210
0
220
0
230
1
100
AcDbArc
50
180
51
270
0
LINE
5
120
100
AcDbEntity
8
0
100
AcDbLine
10
-9.9999999999999449
20
-199.99999999999994
30
0
11
9.9999999999999645
21
-199.99999999999997
31
0
0
ARC
5
121
100
AcDbEntity
8
0
100
AcDbCircle
10
9.9999999999999556
20
-174.99999999999994
30
0
40
25.000000000000036
210
0
220
0
230
1
100
AcDbArc
50
-90
51
0
0
LINE
5
122
100
AcDbEntity
8
0
100
AcDbLine
10
34.99999999999995
20
-174.99999999999994
30
0
11
34.999999999999957
21
-99.999999999999972
31
0
0
ARC
5
123
100
AcDbEntity
8
0
100
AcDbCircle
10
64.999999999999972
20
-99.999999999999972
30
0
40
30
210
0
220
-0
230
1
100
AcDbArc
50
89.999999999999972
51
180
0
LINE
5
124
100
AcDbEntity
8
0
100
AcDbLine
10
64.999999999999986
20
-69.999999999999972
30
0
11
89.999999999999943
21
-69.999999999999986
31
0
0
ARC
5
125
100
AcDbEntity
8
0
100
AcDbCircle
10
89.999999999999986
20
-50
30
0
40
19.999999999999982
210
0
220
0
230
1
100
AcDbArc
50
-90.000000000000099
51
0
0
LINE
5
126
100
AcDbEntity
8
0
100
AcDbLine
10
109.99999999999997
20
-49.999999999999986
30
0
11
109.99999999999999
21
60
31
0
0
ARC
5
127
100
AcDbEntity
8
0
100
AcDbCircle
10
100
20
60.000000000000014
30
0
40
9.9999999999999822
210
0
220
0
230
1
100
AcDbArc
50
0
51
90
0
LINE
5
128
100
AcDbEntity
8
0
100
AcDbLine
10
100
20
70.000000000000014
30
0
11
60.000000000000057
21
70.000000000000014
31
0
0
LINE
5
129
100
AcDbEntity
8
0
100
AcDbLine
10
60.000000000000057
20
70.000000000000014
30
0
11
60.000000000000014
21
160.00000000000003
31
0
0
LINE
5
130
100
AcDbEntity
8
0
100
AcDbLine
10
60.000000000000014
20
160.00000000000003
30
0
11
98.284271247461916
21
160
31
0
0
CIRCLE
5
131
100
AcDbEntity
8
0
100
AcDbCircle
10
-51.000000000000014
20
89.80999999999996
30
0
40
1.749999999999998
210
0
220
0
230
1
0
CIRCLE
5
132
100
AcDbEntity
8
0
100
AcDbCircle
10
-51.000000000000028
20
140.19000000000008
30
0
40
1.749999999999998
210
0
220
0
230
1
0
CIRCLE
5
133
100
AcDbEntity
8
0
100
AcDbCircle
10
17.500000000000032
20
-127.49999999999993
30
0
40
1.7500000000000027
210
0
220
0
230
1
0
CIRCLE
5
134
100
AcDbEntity
8
0
100
AcDbCircle
10
-17.499999999999968
20
-127.49999999999997
30
0
40
1.7500000000000027
210
0
220
0
230
1
0
CIRCLE
5
135
100
AcDbEntity
8
0
100
AcDbCircle
10
17.500000000000032
20
-147.49999999999997
30
0
40
1.7500000000000027
210
0
220
0
230
1
0
CIRCLE
5
136
100
AcDbEntity
8
0
100
AcDbCircle
10
-17.499999999999968
20
-147.49999999999997
30
0
40
1.7500000000000049
210
0
220
0
230
1
0
CIRCLE
5
137
100
AcDbEntity
8
0
100
AcDbCircle
10
50.999999999999957
20
89.810000000000016
30
0
40
1.749999999999998
210
0
220
0
230
1
0
CIRCLE
5
138
100
AcDbEntity
8
0
100
AcDbCircle
10
51
20
140.19000000000005
30
0
40
1.749999999999998
210
0
220
0
230
1
0
CIRCLE
5
139
100
AcDbEntity
8
0
100
AcDbCircle
10
8.9999999999999378
20
140.19899870116308
30
0
40
1.7500000000000016
210
0
220
0
230
1
0
LWPOLYLINE
5
140
100
AcDbEntity
8
0
100
AcDbPolyline
90
4
70
1
43
0.0
10
-15.000001105753247
20
42.500000000000107
42
1.0000000505322972
10
-14.99999863615103
20
37.500000000000234
10
15.000001612242759
20
37.500000000000114
42
0.99999998509883881
10
14.999998480083791
20
42.500000000000107
0
LWPOLYLINE
5
141
100
AcDbEntity
8
0
100
AcDbPolyline
90
4
70
1
43
0.0
10
-15.000001105753247
20
-22.499999999999897
10
14.999998462263077
20
-22.499999999999854
42
-0.99999998509883881
10
15.000001612242759
20
-27.499999999999886
10
-14.999998636151036
20
-27.499999999999758
42
-1.0000000516191379
0
ENDSEC
0
SECTION
2
OBJECTS
0
DICTIONARY
5
C
100
AcDbDictionary
3
ACAD_GROUP
350
D
3
ACAD_MLINESTYLE
350
17
0
DICTIONARY
5
D
100
AcDbDictionary
0
DICTIONARY
5
1A
330
C
100
AcDbDictionary
0
DICTIONARY
5
17
100
AcDbDictionary
0
ENDSEC
0
EOF
